<?xml version="1.0" ?><svg style="enable-background:new 0 0 512 512;" version="1.1" viewBox="0 0 512 512" xml:space="preserve" xmlns="http://www.w3.org/2000/svg" xmlns:xlink="http://www.w3.org/1999/xlink"><style type="text/css">
	.st0{display:none;}
	.st1{fill:#DEFFFE;}
	.st2{fill:#004358;}
	.st3{fill:#04BFBF;}
	.st4{fill:#BEDB39;}
</style><g id="Layer_1"/><g class="st0" id="Layer_3"/><g class="st0" id="Layer_5"/><g id="Layer_4"><g><g><path class="st1" d="M384.217,51.444v109.774c0,13.543-10.979,24.522-24.522,24.522H258.478v-23h89.739V51.444H384.217z"/><path class="st1" d="M207.741,327.413c9.66-0.771,21.995-3.09,28.876-9.602c12.085,12.006,30.614,15.255,47.146,15.254     c7.579,0,14.739-0.684,20.661-1.521l-0.643-14.432c-5.795,0.795-12.711,1.431-20.018,1.431c-16.531,0-35.061-3.249-47.146-15.254     c-6.906,6.536-19.307,8.848-28.983,9.611L207.741,327.413z"/><g><path class="st3" d="M52.425,172.739h11.349c10.338,0,18.748-8.411,18.748-18.749s-8.41-18.748-18.748-18.748H52.425      c-10.338,0-18.748,8.41-18.748,18.748S42.087,172.739,52.425,172.739z M52.425,145.243h11.349c4.823,0,8.748,3.924,8.748,8.748      s-3.925,8.749-8.748,8.749H52.425c-4.823,0-8.748-3.925-8.748-8.749S47.602,145.243,52.425,145.243z"/><path class="st3" d="M161.381,162.739h-39.516c-4.823,0-8.748-3.925-8.748-8.749s3.925-8.748,8.748-8.748h24.41      c2.762,0,5-2.239,5-5s-2.238-5-5-5h-24.41c-10.338,0-18.748,8.41-18.748,18.748s8.41,18.749,18.748,18.749h39.516      c2.762,0,5-2.239,5-5S164.143,162.739,161.381,162.739z"/><path class="st3" d="M52.425,115.075h93.851c2.762,0,5-2.239,5-5s-2.238-5-5-5H52.425c-4.823,0-8.748-3.924-8.748-8.748      s3.925-8.748,8.748-8.748h93.851c2.762,0,5-2.239,5-5s-2.238-5-5-5H52.425c-10.338,0-18.748,8.41-18.748,18.748      S42.087,115.075,52.425,115.075z"/><path class="st3" d="M459.575,135.243h-11.349c-10.338,0-18.748,8.41-18.748,18.748s8.41,18.749,18.748,18.749h11.349      c10.338,0,18.748-8.411,18.748-18.749S469.913,135.243,459.575,135.243z M459.575,162.739h-11.349      c-4.823,0-8.748-3.925-8.748-8.749s3.925-8.748,8.748-8.748h11.349c4.823,0,8.748,3.924,8.748,8.748      S464.398,162.739,459.575,162.739z"/><path class="st3" d="M408.883,153.991c0-10.338-8.41-18.748-18.748-18.748h-24.41c-2.762,0-5,2.239-5,5s2.238,5,5,5h24.41      c4.823,0,8.748,3.924,8.748,8.748s-3.925,8.749-8.748,8.749h-39.516c-2.762,0-5,2.239-5,5s2.238,5,5,5h39.516      C400.473,172.739,408.883,164.329,408.883,153.991z"/><path class="st3" d="M459.575,105.075h-93.851c-2.762,0-5,2.239-5,5s2.238,5,5,5h93.851c10.338,0,18.748-8.41,18.748-18.748      s-8.41-18.748-18.748-18.748h-93.851c-2.762,0-5,2.239-5,5s2.238,5,5,5h93.851c4.823,0,8.748,3.924,8.748,8.748      S464.398,105.075,459.575,105.075z"/><path class="st3" d="M150.845,340.609c6.166-9.49,7.846-21.092,4.606-31.831c-7.52-24.928-31.244-39.225-65.091-39.225      c-31.427,0-50.196,15.664-60.407,28.804c-18.278,23.522-21.584,53.93-16.92,72.229c3.994,15.675,0.153,28.315-3.562,40.54      c-5.448,17.927-11.082,36.465,17.717,54.651c3.07,1.939,6.313,3.384,9.65,4.345v32.143c0,2.761,2.238,5,5,5h97.043      c1.819,0,3.495-0.988,4.376-2.581c12.854-23.249,3.255-34.512-10.031-50.101c-1.768-2.074-3.596-4.219-5.504-6.536      c-0.194-0.236-0.41-0.455-0.646-0.651l-7.703-6.464c13.567-6.941,23.161-20.586,24.376-36.537      c1.97-1.143,3.593-2.823,4.79-4.982c6.831-12.313-2.053-39.029-4.659-46.228v-4.525      C146.529,346.335,148.877,343.636,150.845,340.609z M19.039,414.033c3.923-12.907,8.368-27.536,3.684-45.917      c-4.211-16.524-0.368-43.684,15.127-63.624c8.841-11.377,25.128-24.939,52.511-24.939c29.554,0,49.271,11.405,55.517,32.113      c2.388,7.915,1.142,16.478-3.418,23.494c-1.812,2.789-4.062,5.198-6.627,7.169c0,0-0.001,0-0.001,0.001      c-0.473,0.364-0.958,0.71-1.451,1.042c-0.063,0.043-0.127,0.085-0.191,0.128c-0.457,0.303-0.923,0.592-1.396,0.868      c-0.056,0.033-0.111,0.067-0.167,0.099c-1.066,0.612-2.169,1.154-3.303,1.623c-0.044,0.018-0.09,0.034-0.135,0.053      c-0.494,0.201-0.994,0.387-1.498,0.56c-0.141,0.048-0.283,0.093-0.425,0.139c-0.417,0.136-0.838,0.262-1.261,0.379      c-0.17,0.047-0.34,0.094-0.512,0.138c-0.417,0.107-0.837,0.201-1.259,0.289c-0.163,0.034-0.325,0.072-0.49,0.103      c-0.578,0.11-1.158,0.205-1.743,0.279c-1.983,0.25-4.047,0.458-6.163,0.602c-14.806,1.005-32.087-1.138-41.172-13.991      c-0.902-1.276-2.326-2.031-3.832-2.107c-0.195-0.01-0.392,0.002-0.589,0.015c-0.31,0.021-0.62,0.061-0.928,0.141      c-1.763,0.461-3.114,1.837-3.569,3.562c-0.065,0.246-0.112,0.5-0.138,0.759c-0.179,1.724-4.203,42.617,10.838,77.458      c0.218,0.506,0.422,1.01,0.613,1.512c0.173,0.454,0.334,0.91,0.488,1.366c0.013,0.037,0.028,0.075,0.04,0.113      c1.648,4.964,2.125,10.039,1.424,15.011c-0.031,0.212-0.067,0.421-0.102,0.631c-0.036,0.226-0.073,0.451-0.114,0.676      c-0.07,0.377-0.146,0.751-0.229,1.122c-0.009,0.042-0.018,0.084-0.027,0.126c-1.299,5.693-4.057,10.674-7.355,14.602      c-0.014,0.017-0.029,0.034-0.043,0.05c-0.188,0.224-0.38,0.441-0.572,0.658c-7.207,8.033-17.819,12.517-27.847,10.897      c-0.125-0.02-0.25-0.011-0.375-0.022c-3.248-0.586-6.552-1.823-9.821-3.887C10.174,443.205,13.511,432.225,19.039,414.033z       M109.654,445.829l10.644,8.931c1.854,2.243,3.613,4.309,5.318,6.309c12.338,14.477,17.817,20.909,10.245,36.195H46.839v-25.695      c0.043,0,0.086,0,0.129,0c1.184,0,2.364-0.063,3.539-0.175c0.013-0.001,0.027-0.003,0.04-0.004      c0.518-0.05,1.034-0.11,1.549-0.18c0.106-0.014,0.211-0.029,0.317-0.044c0.426-0.062,0.851-0.132,1.275-0.208      c0.151-0.027,0.301-0.052,0.452-0.08c0.407-0.078,0.812-0.165,1.216-0.256c0.145-0.033,0.291-0.061,0.436-0.095      c0.508-0.12,1.014-0.251,1.517-0.391c0.228-0.063,0.454-0.134,0.681-0.202c0.305-0.091,0.61-0.182,0.913-0.28      c0.22-0.071,0.44-0.147,0.66-0.222c0.334-0.114,0.667-0.233,0.999-0.356c0.171-0.064,0.342-0.127,0.513-0.193      c0.468-0.18,0.932-0.369,1.394-0.567c0.03-0.013,0.061-0.025,0.091-0.038c6.603-2.843,12.575-7.416,17.208-13.277      c2.297-2.866,4.197-5.944,5.679-9.172h4.915h8.645H109.654z M133.965,354.98c0.053,0.283,0.13,0.562,0.23,0.833      c4.514,12.144,9.236,32.194,5.602,38.747c-0.572,1.03-1.181,1.342-1.918,1.493c-2.327,0.477-3.997,2.524-3.997,4.898      c0,19.231-15.646,34.877-34.877,34.877H90.36c-0.577,0-1.159-0.013-1.741-0.037c0.244-1.326,0.423-2.664,0.54-4.011      c0.539-5.921-0.19-11.913-2.181-17.765c-0.018-0.052-0.034-0.104-0.052-0.155c-0.164-0.476-0.338-0.952-0.519-1.426      c-0.035-0.093-0.068-0.187-0.104-0.28c-0.214-0.551-0.438-1.102-0.674-1.65c-0.592-1.37-1.151-2.753-1.681-4.146      c-1.472-3.873-2.705-7.819-3.743-11.763c-4.563-17.33-5.287-34.616-5.156-45.43c11.227,8.349,27.623,11.378,48.202,8.785      c0.846-0.107,1.682-0.25,2.513-0.41c0.224-0.043,0.446-0.094,0.668-0.141c0.648-0.137,1.291-0.291,1.929-0.461      c0.197-0.053,0.394-0.103,0.59-0.158c1.68-0.476,3.318-1.063,4.907-1.756C133.893,355.008,133.93,354.996,133.965,354.98z"/><path class="st3" d="M487.883,467.495c-1.73-15.185-12.798-27.226-27.083-30.669c10.834-7.219,19.028-18.296,22.362-31.44      c10.553-10.08,16.032-27.697,16.308-52.502c4.681-5.287,7.531-12.23,7.531-19.83c0-9.012-4.018-17.433-10.886-23.098      c0.098-1.088,0.147-2.173,0.147-3.248c0-20.27-16.491-36.761-36.762-36.761c-13.415,0-25.467,7.137-31.939,18.551      c-4.04-4.736-10.006-7.581-16.458-7.581c-9.813,0-18.122,6.568-20.761,15.538c-2.904-1.026-5.979-1.554-9.136-1.554      c-15.121,0-27.424,12.302-27.424,27.423c0,6.509,2.233,12.631,6.348,17.544c-0.373,1.598-0.561,3.229-0.561,4.879      c0,9.434,6.071,17.472,14.51,20.425c-4.403,16.403-4.665,28.053-0.741,34.64c1.171,1.965,2.715,3.509,4.561,4.581      c1.226,16.104,10.994,29.85,24.766,36.728c-1.488,0.913-2.917,1.931-4.265,3.063l-3.826,3.21      c-0.234,0.197-0.451,0.415-0.646,0.651c-17.194,20.878-17.63,21.875-23.278,53.334c-0.262,1.458,0.136,2.956,1.086,4.092      s2.354,1.792,3.835,1.792h111.24c1.425,0,2.781-0.608,3.73-1.67c0.948-1.063,1.398-2.48,1.237-3.896L487.883,467.495z       M475.188,399.109c-0.251,0.214-0.505,0.41-0.759,0.61c-0.272,0.215-0.544,0.43-0.823,0.631      c-0.331,0.238-0.664,0.461-0.998,0.676c-0.162,0.104-0.323,0.214-0.486,0.313c-0.312,0.19-0.627,0.362-0.942,0.534      c-0.218,0.118-0.435,0.245-0.654,0.355c-0.151,0.076-0.303,0.14-0.454,0.213c-6.682,3.168-13.673,2.53-17.626,1.732v-30.054      c6.662-2.006,12.419-6.345,16.163-12.311c0.608,0.178,1.222,0.33,1.84,0.469c0.072,0.016,0.141,0.039,0.213,0.054      c0.52,0.113,1.047,0.198,1.574,0.283c0.175,0.028,0.347,0.069,0.523,0.094c0.432,0.062,0.87,0.096,1.306,0.139      c0.275,0.027,0.547,0.068,0.823,0.087c0.498,0.035,1,0.042,1.503,0.053c0.219,0.005,0.435,0.023,0.655,0.023c0,0,0,0,0,0      c0,0,0,0,0,0c0.523,0,1.042-0.014,1.559-0.041c0.239-0.012,0.475-0.037,0.713-0.054c0.273-0.021,0.547-0.036,0.818-0.064      c0.333-0.034,0.663-0.082,0.994-0.127c0.169-0.023,0.34-0.041,0.509-0.067c0.395-0.061,0.786-0.135,1.177-0.211      c0.097-0.019,0.195-0.034,0.292-0.054c0.436-0.09,0.869-0.192,1.3-0.301c0.046-0.012,0.092-0.021,0.138-0.033      c0.462-0.119,0.92-0.251,1.375-0.391c0.01-0.003,0.021-0.006,0.031-0.009c1.104-0.343,2.188-0.743,3.243-1.211      C488.008,379.001,483.231,392.21,475.188,399.109z M369.569,344.747c0-1.473,0.282-2.924,0.838-4.313      c0.761-1.9,0.287-4.073-1.197-5.483c-3.5-3.326-5.428-7.811-5.428-12.627c0-9.607,7.816-17.423,17.424-17.423      c3.77,0,7.356,1.185,10.374,3.426c1.595,1.184,3.737,1.312,5.461,0.328c1.725-0.985,2.702-2.896,2.492-4.871      c-0.044-0.416-0.066-0.83-0.066-1.231c0-6.416,5.22-11.636,11.636-11.636c4.684,0,8.892,2.787,10.72,7.1      c0.519,1.223,1.501,2.188,2.732,2.686c1.23,0.497,2.608,0.484,3.831-0.037c0.828-0.353,1.7-0.623,2.592-0.802      c1.657-0.333,3.034-1.481,3.659-3.051c4.082-10.246,13.842-16.866,24.863-16.866c14.757,0,26.762,12.005,26.762,26.761      c0,1.525-0.139,3.089-0.411,4.648c-0.344,1.96,0.509,3.938,2.17,5.035c5.622,3.713,8.979,9.942,8.979,16.663      c0,5.988-2.664,11.354-6.854,15.015c-0.16,0.14-0.314,0.29-0.478,0.425c-0.362,0.296-0.742,0.571-1.125,0.841      c-0.136,0.097-0.268,0.203-0.406,0.296c-0.417,0.28-0.851,0.535-1.289,0.784c-0.118,0.067-0.231,0.142-0.351,0.207      c-0.449,0.243-0.915,0.459-1.384,0.668c-0.121,0.054-0.238,0.117-0.361,0.168c-0.459,0.193-0.932,0.357-1.407,0.516      c-0.144,0.048-0.284,0.107-0.429,0.151c-0.455,0.141-0.923,0.251-1.392,0.359c-0.174,0.04-0.343,0.093-0.518,0.128      c-0.465,0.094-0.941,0.156-1.417,0.217c-0.183,0.023-0.362,0.061-0.545,0.08c-0.652,0.065-1.312,0.1-1.98,0.1      c-0.007,0-0.013,0.001-0.02,0.001c-3.03,0-5.939-0.661-8.644-1.963c-1.237-0.596-2.665-0.656-3.95-0.167      c-0.321,0.122-0.625,0.276-0.91,0.458c-0.855,0.546-1.531,1.344-1.926,2.296c-0.172,0.413-0.359,0.816-0.557,1.211      c-0.094,0.188-0.198,0.371-0.298,0.555c-0.103,0.19-0.205,0.381-0.314,0.568c-0.148,0.252-0.304,0.498-0.464,0.742      c-0.063,0.098-0.126,0.196-0.192,0.293c-0.201,0.295-0.408,0.585-0.624,0.868c-0.018,0.024-0.036,0.047-0.054,0.071      c-2.491,3.223-5.977,5.599-9.925,6.71c-0.015,0.004-0.031,0.008-0.046,0.012c-0.385,0.107-0.775,0.204-1.169,0.287      c-0.002,0-0.004,0.001-0.007,0.001c-0.402,0.085-0.808,0.156-1.217,0.214c-0.002,0-0.003,0-0.005,0      c-0.471,0.067-0.927,0.116-1.374,0.149c-0.439,0.03-0.881,0.049-1.325,0.049c-7.861,0-15.013-4.941-17.794-12.296      c-0.035-0.092-0.08-0.177-0.119-0.266c-0.61-1.367-1.798-2.399-3.254-2.792c-0.206-0.056-0.413-0.096-0.622-0.124      c-0.064-0.009-0.128-0.01-0.192-0.016c-0.144-0.014-0.288-0.027-0.433-0.028c-0.019,0-0.039-0.004-0.058-0.004      c-0.037,0-0.073,0.008-0.109,0.009c-0.208,0.005-0.414,0.022-0.619,0.053c-0.062,0.009-0.124,0.017-0.186,0.028      c-0.245,0.046-0.487,0.106-0.722,0.188c-0.036,0.012-0.07,0.029-0.105,0.042c-0.204,0.076-0.402,0.167-0.596,0.269      c-0.06,0.031-0.118,0.063-0.177,0.097c-0.22,0.128-0.435,0.268-0.636,0.431c-2.095,1.7-4.627,2.598-7.32,2.598      c-4.122,0-7.854-2.127-9.984-5.691c-0.989-1.656-2.837-2.597-4.766-2.413c-1.921,0.183-3.565,1.455-4.226,3.269      c-0.104,0.287-0.219,0.567-0.344,0.842c-1.874,4.116-6.014,6.824-10.573,6.825c-0.075-0.002-0.151-0.008-0.226-0.013      l-0.366-0.022c-0.026-0.001-0.05,0.003-0.076,0.003C374.435,356.003,369.569,350.939,369.569,344.747z M387.769,400.952      c0-2.375-1.67-4.422-3.997-4.898c-0.845-0.173-1.361-0.554-1.841-1.36c-1.935-3.246-2.266-12.396,2.234-28.516      c0.06-0.008,0.117-0.024,0.177-0.033c0.573-0.085,1.141-0.188,1.701-0.318c0.078-0.018,0.154-0.04,0.232-0.059      c0.543-0.132,1.079-0.284,1.608-0.457c0.059-0.019,0.119-0.036,0.177-0.055c0.548-0.185,1.085-0.396,1.615-0.623      c0.101-0.043,0.202-0.087,0.303-0.132c0.52-0.232,1.03-0.482,1.529-0.754c0.08-0.043,0.157-0.09,0.236-0.134      c0.492-0.276,0.974-0.567,1.443-0.88c0.031-0.02,0.062-0.039,0.093-0.059c0.479-0.323,0.941-0.671,1.393-1.031      c0.087-0.069,0.173-0.137,0.259-0.207c0.434-0.357,0.854-0.73,1.26-1.12c0.077-0.074,0.151-0.15,0.227-0.225      c0.413-0.409,0.815-0.829,1.195-1.271c0.004-0.005,0.008-0.008,0.012-0.013c2.366,1.886,5.11,3.268,8.041,4.04      c1.759,0.463,3.585,0.706,5.439,0.706c2.901,0,5.767-0.591,8.414-1.71c0.321,0.505,0.657,0.997,1.007,1.478      c0.104,0.143,0.216,0.278,0.322,0.419c0.252,0.334,0.504,0.667,0.77,0.989c0.136,0.165,0.28,0.321,0.419,0.483      c0.248,0.287,0.495,0.575,0.753,0.851c0.157,0.168,0.322,0.329,0.482,0.493c0.252,0.258,0.503,0.516,0.764,0.763      c0.174,0.165,0.354,0.323,0.533,0.484c0.26,0.235,0.52,0.469,0.787,0.694c0.188,0.158,0.381,0.309,0.572,0.462      c0.269,0.215,0.538,0.428,0.813,0.633c0.201,0.149,0.406,0.292,0.61,0.437c0.277,0.195,0.554,0.388,0.838,0.573      c0.213,0.139,0.428,0.273,0.645,0.407c0.285,0.176,0.571,0.348,0.862,0.514c0.223,0.128,0.448,0.251,0.675,0.373      c0.292,0.157,0.587,0.31,0.885,0.457c0.233,0.115,0.467,0.227,0.704,0.336c0.299,0.138,0.601,0.27,0.905,0.398      c0.242,0.102,0.485,0.202,0.73,0.298c0.305,0.119,0.614,0.231,0.923,0.339c0.25,0.088,0.501,0.175,0.754,0.256      c0.312,0.1,0.627,0.191,0.943,0.281c0.256,0.073,0.512,0.146,0.771,0.212c0.32,0.081,0.643,0.152,0.966,0.222      c0.26,0.057,0.519,0.116,0.781,0.165c0.329,0.062,0.66,0.112,0.991,0.162c0.262,0.04,0.522,0.084,0.786,0.117      c0.339,0.042,0.681,0.07,1.022,0.1c0.26,0.023,0.518,0.052,0.78,0.068c0.045,0.003,0.09,0.009,0.135,0.012V408      c0,0.363,0.052,0.716,0.127,1.061c0.355,1.63,1.499,3.009,3.104,3.616c0.031,0.012,0.102,0.037,0.191,0.069      c0.035,0.012,0.074,0.026,0.117,0.041c0.034,0.012,0.062,0.022,0.102,0.035c0.092,0.032,0.197,0.067,0.316,0.106      c0.017,0.006,0.036,0.012,0.054,0.017c0.117,0.038,0.248,0.079,0.389,0.123c0.022,0.007,0.043,0.013,0.065,0.02      c3.262,1,12.447,3.226,22.368,0.347c-7.565,13.471-22.041,22.394-37.989,22.394h-8.645      C403.414,435.829,387.769,420.184,387.769,400.952z M381.554,497.264c4.285-23.543,5.351-24.958,19.801-42.505l3.474-2.915      c4.622-3.879,10.491-6.015,16.525-6.015h1.292h8.645h21.114c13.081,0,24.062,9.801,25.543,22.797l3.263,28.638H381.554z"/></g><g><path class="st2" d="M162.275,172.784h62.08l19.69,23.742c2.83,3.414,6.941,5.34,11.35,5.34c0.186,0,0.371-0.003,0.558-0.01      c4.618-0.17,8.804-2.426,11.485-6.19l16.294-22.882h65.992c11.579,0,21-9.42,21-21V26.264c0-11.58-9.421-21-21-21H162.275      c-11.579,0-21,9.42-21,21v125.52C141.275,163.364,150.696,172.784,162.275,172.784z"/><path class="st2" d="M328.949,438.115c-4.246-21.773-21.638-38.287-42.929-41.94c14.172-9.638,23.501-25.892,23.501-44.285      v-37.966c0-2.761-2.238-5-5-5s-5,2.239-5,5v37.966c0,23.998-19.523,43.521-43.521,43.521s-43.521-19.523-43.521-43.521v-42.035      c0-2.761-2.238-5-5-5s-5,2.239-5,5v42.035c0,18.393,9.329,34.647,23.501,44.285c-21.291,3.653-38.683,20.166-42.929,41.94      l-4.441,22.775c-0.286,1.466,0.099,2.983,1.048,4.136c0.95,1.153,2.365,1.821,3.859,1.821h25.957v-15.652c0-2.761,2.238-5,5-5      s5,2.239,5,5v15.652h73.053v-15.652c0-2.761,2.238-5,5-5s5,2.239,5,5v15.652h25.957c1.494,0,2.909-0.668,3.859-1.821      c0.949-1.153,1.334-2.67,1.048-4.136L328.949,438.115z"/><path class="st2" d="M214.841,180.882c0-2.761-2.238-5-5-5s-5,2.239-5,5c0,6.065-4.935,11-11,11H51.86      c-1.09,0-2.149,0.356-3.018,1.013l-23.156,17.528c-0.519,0.393-1.008,0.284-1.329,0.124c-0.32-0.159-0.702-0.485-0.702-1.134      v-14.327c0-1.868-1.041-3.58-2.699-4.439c-3.674-1.903-5.956-5.645-5.956-9.765V69.436c0-6.065,4.935-11,11-11h105.565      c2.762,0,5-2.239,5-5s-2.238-5-5-5H26c-11.579,0-21,9.42-21,21v111.446c0,6.803,3.251,13.063,8.655,16.98v11.551      c0,4.305,2.395,8.171,6.25,10.088c1.603,0.797,3.321,1.189,5.029,1.189c2.4,0,4.781-0.776,6.787-2.294l21.817-16.515h140.302      C205.42,201.882,214.841,192.461,214.841,180.882z"/><path class="st2" d="M486,48.436H380.435c-2.762,0-5,2.239-5,5s2.238,5,5,5H486c6.065,0,11,4.935,11,11v111.446      c0,4.12-2.282,7.862-5.956,9.765c-1.658,0.859-2.699,2.572-2.699,4.439v14.327c0,0.648-0.382,0.975-0.702,1.134      c-0.321,0.16-0.811,0.269-1.329-0.124l-23.156-17.528c-0.868-0.657-1.928-1.013-3.018-1.013h-141.98c-6.065,0-11-4.935-11-11      c0-2.761-2.238-5-5-5s-5,2.239-5,5c0,11.58,9.421,21,21,21h140.302l21.817,16.515c2.006,1.518,4.387,2.294,6.787,2.294      c1.708,0,3.427-0.393,5.029-1.189c3.855-1.917,6.25-5.783,6.25-10.088v-11.551c5.404-3.917,8.655-10.177,8.655-16.98V69.436      C507,57.856,497.579,48.436,486,48.436z"/></g><g><path class="st4" d="M317.155,252.296c-9.287-13.581-23.544-21.51-39.116-21.753c-26.544-0.432-38.853,11.189-43.729,17.854      c-9.57-4.158-32.52-11.709-43.968,5.213c-13.229,19.558-1.124,56.557-0.602,58.122c0.651,1.955,2.436,3.31,4.493,3.413      c3.535,0.179,30.752,1.151,42.384-9.856c12.085,12.006,30.614,15.255,47.146,15.254c18.712-0.001,34.861-4.167,36.175-4.515      c1.571-0.416,2.841-1.569,3.407-3.092C331.119,292.002,328.806,269.333,317.155,252.296z"/></g><g><path class="st4" d="M320.382,78.94H191.618c-10.338,0-18.749-8.41-18.749-18.748s8.411-18.749,18.749-18.749h128.764      c10.338,0,18.749,8.411,18.749,18.749S330.72,78.94,320.382,78.94z M191.618,51.444c-4.824,0-8.749,3.925-8.749,8.749      s3.925,8.748,8.749,8.748h128.764c4.824,0,8.749-3.924,8.749-8.748s-3.925-8.749-8.749-8.749H191.618z"/></g><g><path class="st4" d="M202.967,136.604h-11.349c-10.338,0-18.749-8.411-18.749-18.749s8.411-18.748,18.749-18.748h11.349      c10.338,0,18.748,8.41,18.748,18.748S213.305,136.604,202.967,136.604z M191.618,109.108c-4.824,0-8.749,3.924-8.749,8.748      s3.925,8.749,8.749,8.749h11.349c4.823,0,8.748-3.925,8.748-8.749s-3.925-8.748-8.748-8.748H191.618z"/></g><g><path class="st4" d="M321.609,136.604h-60.551c-10.338,0-18.748-8.411-18.748-18.749s8.41-18.748,18.748-18.748h60.551      c10.338,0,18.748,8.41,18.748,18.748S331.947,136.604,321.609,136.604z M261.059,109.108c-4.823,0-8.748,3.924-8.748,8.748      s3.925,8.749,8.748,8.749h60.551c4.823,0,8.748-3.925,8.748-8.749s-3.925-8.748-8.748-8.748H261.059z"/></g></g></g></g></svg>