<svg id="Layer_1" data-name="Layer 1" xmlns="http://www.w3.org/2000/svg" viewBox="0 0 64 64"><defs><style>.cls-1{fill:#b4d380;}.cls-2{fill:#fdd870;}.cls-3{fill:#838f9a;}.cls-4{fill:#76cbea;}.cls-5{fill:#e6e9ed;}.cls-6{fill:#1e1814;}</style></defs><path class="cls-1" d="M62,2V14H50V2Z"/><path class="cls-1" d="M32,2V14H20V2Z"/><rect class="cls-2" x="54" y="6" width="4" height="4"/><rect class="cls-2" x="24" y="6" width="4" height="4"/><path class="cls-3" d="M26.59,19.41a4.83,4.83,0,0,1,6.82,0L44.59,30.59a4.83,4.83,0,0,1,0,6.82L44,38,26,20Z"/><path class="cls-3" d="M24,58l-2.59,2.59a4.83,4.83,0,0,1-6.82,0L3.41,49.41a4.83,4.83,0,0,1,0-6.82L6,40Z"/><path class="cls-4" d="M44,38l-2,2L24,58,6,40,20,26l6-6Z"/><path class="cls-5" d="M26.59,19.41,26,20l-6,6V14H32V2H50V14H62V40H42l2-2,.59-.59a4.83,4.83,0,0,0,0-6.82L33.41,19.41a4.83,4.83,0,0,0-6.82,0Z"/><path class="cls-2" d="M38,38,24,52,12,40,26,26Z"/><circle class="cls-1" cx="25" cy="39" r="2"/><rect class="cls-6" x="11" y="47.76" width="2" height="8.49" transform="translate(-33.25 23.72) rotate(-45)"/><polygon class="cls-6" points="30.71 41.05 33.76 38 30.71 34.95 29.29 36.36 30.93 38 29.29 39.64 30.71 41.05"/><polygon class="cls-6" points="26 33.07 27.64 34.71 29.05 33.29 26 30.24 22.95 33.29 24.36 34.71 26 33.07"/><polygon class="cls-6" points="19.29 43.05 20.71 41.64 19.07 40 20.71 38.36 19.29 36.95 16.24 40 19.29 43.05"/><polygon class="cls-6" points="27.05 44.71 25.64 43.29 24 44.93 22.36 43.29 20.95 44.71 24 47.76 27.05 44.71"/><path class="cls-6" d="M24,53.41,39.41,38,26,24.59,10.59,40ZM36.59,38,24,50.59,13.41,40,26,27.41Z"/><path class="cls-6" d="M25,42a3,3,0,1,0-3-3A3,3,0,0,0,25,42Zm0-4a1,1,0,1,1-1,1A1,1,0,0,1,25,38Z"/><path class="cls-6" d="M63,1H19V25.59L2.71,41.88a5.82,5.82,0,0,0,0,8.24L13.88,61.29a5.82,5.82,0,0,0,8.24,0L42.41,41H63ZM61,13H51V3H61ZM31,3V13H21V3ZM44,36.57,27.43,20a3.81,3.81,0,0,1,5.28.11L43.88,31.29A3.81,3.81,0,0,1,44,36.57ZM26,21.41,42.59,38,24,56.59,7.41,40ZM20.71,59.88a3.94,3.94,0,0,1-5.42,0L4.12,48.71a3.84,3.84,0,0,1,0-5.42L6,41.41,22.59,58ZM44.41,39l.88-.88A5.85,5.85,0,0,0,47,34a5.79,5.79,0,0,0-1.71-4.12L34.12,18.71a5.82,5.82,0,0,0-8.24,0L21,23.59V15H33V3H49V15H61V39Z"/><path class="cls-6" d="M29,5H23v6h6ZM27,9H25V7h2Z"/><path class="cls-6" d="M59,11V5H53v6ZM55,7h2V9H55Z"/><polygon class="cls-6" points="43 10 37 10 37 5 35 5 35 12 43 12 43 10"/><polygon class="cls-6" points="45 15 47 15 47 4 39 4 39 6 45 6 45 15"/><polygon class="cls-6" points="53 21 55 21 55 19 59 19 59 17 53 17 53 21"/><polygon class="cls-6" points="57 23 53 23 53 25 59 25 59 21 57 21 57 23"/><rect class="cls-6" x="35" y="14" width="2" height="2"/><rect class="cls-6" x="39" y="14" width="2" height="2"/><rect class="cls-6" x="23" y="17" width="2" height="2"/><polygon class="cls-6" points="53 33 57 33 57 37 59 37 59 31 53 31 53 33"/><polygon class="cls-6" points="51 31 49 31 49 37 55 37 55 35 51 35 51 31"/><rect class="cls-6" x="57" y="27" width="2" height="2"/><rect class="cls-6" x="53" y="27" width="2" height="2"/><rect class="cls-6" x="49" y="27" width="2" height="2"/><polygon class="cls-6" points="45 19 49 19 49 25 51 25 51 17 45 17 45 19"/><polygon class="cls-6" points="43 18 41 18 41 23 47 23 47 21 43 21 43 18"/></svg>